<?xml version="1.0" encoding="utf-8"?>
<!-- Generator: Adobe Illustrator 22.1.0, SVG Export Plug-In . SVG Version: 6.00 Build 0)  -->
<svg version="1.1" id="Layer_1" xmlns="http://www.w3.org/2000/svg" xmlns:xlink="http://www.w3.org/1999/xlink" x="0px" y="0px"
	 viewBox="0 0 963.5 286.2" style="enable-background:new 0 0 963.5 286.2;" xml:space="preserve">
<style type="text/css">
	.st0{fill:#FFFFFF;}
	.st1{fill:#223154;}
	.st2{fill:#F01A30;}
</style>
<path class="st0" d="M464.9,243.4c-17.7,0-31.1-5.2-40.2-15.7c-9.1-10.5-13.6-24.2-13.6-41.4V86h48.4v90.2c0,8.4,1.9,14.8,5.7,19.3
	c3.8,4.5,9.6,6.7,17.3,6.7c8.4,0,14.9-2.8,19.7-8.5c4.8-5.7,7.2-13.1,7.2-22.3V86h48.7v152.9h-46.6v-18.8h-0.9
	c-5.6,7.6-11.9,13.3-19,17.3C484.6,241.4,475.7,243.4,464.9,243.4z"/>
<path class="st1" d="M255.5,86"/>
<path class="st2" d="M280,186.6h0.9c14.5,0,26.2,11.7,26.2,26.2v0c0,14.5-11.7,26.2-26.2,26.2H280c-14.5,0-26.2-11.7-26.2-26.2v0
	C253.8,198.4,265.5,186.6,280,186.6z"/>
<path class="st0" d="M824.9,243c-12.2,0-23.2-2-33.1-6c-9.9-4-18.2-9.5-25-16.6c-6.8-7.1-12-15.4-15.7-25.1
	c-3.7-9.7-5.5-20.1-5.5-31.4c0-11,1.8-21.3,5.5-30.9c3.7-9.6,8.9-17.9,15.7-25c6.8-7.1,14.8-12.6,24.1-16.6c9.3-4,19.6-6,31.1-6
	c10.6,0,20.2,1.6,28.6,4.9c8.4,3.3,15.8,7.8,22.2,13.6c8.9,8.1,15.5,18.4,19.9,30.9c4.4,12.5,6.4,26.3,6.2,41.4H792.1
	c1.5,10.1,5,18,10.5,23.8c5.4,5.8,13.1,8.7,22.9,8.7c6.2,0,11.3-1.3,15.4-3.9c4.1-2.6,7.2-6.2,9.3-10.9h46.2
	c-1.6,6.8-4.5,13.2-8.7,19.3c-4.3,6.1-9.7,11.4-16.3,15.8c-6.2,4.5-13.1,7.8-20.8,10.2C843,241.9,834.4,243,824.9,243z M851.1,148.3
	c-1-8.9-4-16-9-21.2c-5-5.2-11.4-7.8-19.2-7.8c-9.1,0-16.1,2.6-20.9,7.8c-4.8,5.2-8,12.3-9.6,21.2H851.1z"/>
<path class="st0" d="M661.2,85.7c-14.7,0-29.3,5.6-41,12.8l0-55.5h-47.9v195.9h46l0.1-13.4c12.3,7.9,28.4,13.9,44.1,13.6
	c41.6-0.7,75.4-35.2,75.4-76.8C737.8,119.9,703.5,85.7,661.2,85.7z M696.2,162.7c0,19-15.4,34.4-34.4,34.4h-1.2
	c-19,0-34.4-15.4-34.4-34.4v0c0-19,15.4-34.4,34.4-34.4h1.2C680.8,128.3,696.2,143.7,696.2,162.7L696.2,162.7z"/>
<path class="st0" d="M246.5,102.6c-4.5-12.5-10.8-23.1-18.9-31.9c-8.1-8.8-17.9-15.6-29.2-20.4c-11.4-4.8-24-7.3-37.8-7.3H75.4v200
	h82.2c12.7,0,24.1-1.5,34.1-4.6c10.1-3.1,19-7.6,26.9-13.6c11.2-8.6,19.8-19.7,25.7-33.4c6-13.7,9-29.4,9-47.1
	C253.3,129,251,115.1,246.5,102.6z M125.5,188V98l77.6,45L125.5,188z"/>
<g>
	<path class="st0" d="M322.6,123.8h-23.9V86h23.9V43h47.5v43h27.8v37.7h-27.8v66.8c0,6,1.5,10,4.6,11.9c3.1,2,7.2,3,12.4,3
		c2.2,0,4.3,0,6.3-0.2c2-0.1,3.5-0.1,4.5-0.1v35.5c-2.2,0.6-5.5,1.1-10,1.6c-4.5,0.5-10,0.7-16.6,0.7c-7.2,0-13.7-0.6-19.6-1.9
		c-5.9-1.3-11-3.5-15.4-6.7c-4.4-3.2-7.8-7.5-10.2-13c-2.4-5.5-3.6-12.3-3.6-20.5V123.8z"/>
</g>
</svg>
